<svg width="862" height="637" xmlns="http://www.w3.org/2000/svg" xmlns:xlink="http://www.w3.org/1999/xlink"><svg height="26" width="30" id="L1VzZXJzL2t1a2tvbWFoL3Byb2plY3RzL2NhcmJvZHkucHJvL3NyYy9pbWcvc3ByaXRlLW1lbnUuc3Zn" x="738" y="172" xmlns="http://www.w3.org/2000/svg"><path d="M0 0h30v4H0zm0 22h30v4H0zm0-11h22v4H0z" fill="#1caf5e" fill-rule="evenodd"/></svg><svg height="3" width="13" id="L1VzZXJzL2t1a2tvbWFoL3Byb2plY3RzL2NhcmJvZHkucHJvL3NyYy9pbWcvc3ByaXRlLW1pbnVzLnN2Zw==" x="829" y="172" xmlns="http://www.w3.org/2000/svg"><text fill="#2eb66b" fill-rule="evenodd" font-family="GothamPro, Gotham Pro" font-size="31" transform="translate(-743 -4700)"><tspan x="741" y="4711">–</tspan></text></svg><svg width="38" height="38" id="L1VzZXJzL2t1a2tvbWFoL3Byb2plY3RzL2NhcmJvZHkucHJvL3NyYy9pbWcvc3ByaXRlLW9yZGVyLWNhbGwuc3Zn" x="696" y="200" xmlns="http://www.w3.org/2000/svg"><g fill="#1CAF5E"><path d="M19.298 0C9.016 0 .671 8.345.671 18.627c0 10.283 8.345 18.628 18.627 18.628 4.173 0 8.196-1.416 11.475-3.95v1.864h1.639V30.25h-4.918v1.64h2.533c-3.054 2.458-6.78 3.8-10.654 3.8-9.463 0-17.138-7.675-17.138-17.064C2.235 9.24 9.91 1.64 19.298 1.64c9.388 0 17.063 7.6 17.063 16.988 0 3.726-1.192 7.228-3.428 10.208l1.267.969a18.495 18.495 0 0 0 3.725-11.177C38 8.345 29.58 0 19.298 0z"/><path d="M16.84 9.835a2.83 2.83 0 0 0-2.832 2.832v11.996a2.83 2.83 0 0 0 2.831 2.831h4.992a2.83 2.83 0 0 0 2.832-2.831V12.667a2.83 2.83 0 0 0-2.832-2.832H16.84zm6.184 2.832v11.996c0 .67-.522 1.192-1.193 1.192H16.84c-.67 0-1.192-.522-1.192-1.192V12.667c0-.67.522-1.192 1.192-1.192h4.992c.596 0 1.193.521 1.193 1.192z"/><circle cx="19.298" cy="23.769" r="1.043"/></g></svg><svg height="20" width="20" id="L1VzZXJzL2t1a2tvbWFoL3Byb2plY3RzL2NhcmJvZHkucHJvL3NyYy9pbWcvc3ByaXRlLWFkZHJlc3Muc3Zn" x="750" y="269" xmlns="http://www.w3.org/2000/svg"><g fill="#2eb66b"><path d="M13 7c0-1.7-1.3-3-3-3S7 5.3 7 7s1.3 3 3 3 3-1.3 3-3zM9 7c0-.6.4-1 1-1s1 .4 1 1-.4 1-1 1-1-.4-1-1z"/><path d="M11.9 18C13.7 15.2 17 9.7 17 7c0-3.9-3.1-7-7-7S3 3.1 3 7c0 2.7 3.3 8.2 5.1 11H0v2h20v-2zM10 2c2.8 0 5 2.2 5 5 0 1.9-2.8 6.8-5 10.2C7.8 13.8 5 8.9 5 7c0-2.8 2.2-5 5-5z"/></g></svg><svg width="31" height="31" id="L1VzZXJzL2t1a2tvbWFoL3Byb2plY3RzL2NhcmJvZHkucHJvL3NyYy9pbWcvc3ByaXRlLWJ1bGxldC0xLnN2Zw==" x="696" y="238" xmlns="http://www.w3.org/2000/svg"><path d="M23.25 4.65H31v11.703l-17.05 6.2V31H9.3V19.297l17.05-6.2V9.3h-3.1v3.1H0V0h23.25v4.65zm-18.6 0v3.1H18.6v-3.1H4.65z" fill="#2EB66B"/></svg><svg width="27" height="34" id="L1VzZXJzL2t1a2tvbWFoL3Byb2plY3RzL2NhcmJvZHkucHJvL3NyYy9pbWcvc3ByaXRlLWJ1bGxldC0yLnN2Zw==" x="770" y="200" xmlns="http://www.w3.org/2000/svg"><path d="M8.39 26C3.468 23.984 0 19.146 0 13.5 0 6.044 6.044 0 13.5 0S27 6.044 27 13.5c0 5.647-3.468 10.485-8.39 12.5l4.274 4.273-3.58 3.58-5.804-5.805-5.804 5.804-3.58-3.58L8.39 26zm13.547-12.5a8.437 8.437 0 1 0-16.874 0 8.437 8.437 0 0 0 16.875 0z" fill="#2EB66B" fill-rule="evenodd"/></svg><svg height="30" width="30" id="L1VzZXJzL2t1a2tvbWFoL3Byb2plY3RzL2NhcmJvZHkucHJvL3NyYy9pbWcvc3ByaXRlLWJ1bGxldC0zLnN2Zw==" x="758" y="238" xmlns="http://www.w3.org/2000/svg"><path d="M30 15v15H0V15zM4.5 25.5h21v-6h-21zM3 12V7.5h24V12zm3-7.5V0h18v4.5z" fill="#1caf5e"/></svg><svg width="36" height="36" id="L1VzZXJzL2t1a2tvbWFoL3Byb2plY3RzL2NhcmJvZHkucHJvL3NyYy9pbWcvc3ByaXRlLWJ1bGxldHMtMS5zdmc=" x="734" y="200" xmlns="http://www.w3.org/2000/svg"><path d="M14.224 2.59l1.844 1.8-1.36 1.361-3.645-3.644a4.785 4.785 0 0 0-6.804 0 4.741 4.741 0 0 0 0 6.761l3.687 3.688-7.902 7.859L15.54 35.912l16.025-16.024 1.888 1.932 2.502-2.503L16.726.087 14.225 2.59zM6.761 6.41a1.273 1.273 0 0 1 0-1.844 1.317 1.317 0 0 1 1.8 0l3.688 3.688-1.844 1.8L6.76 6.41zm22.302 11.02L15.541 30.95 5.005 20.415l5.4-5.4 2.151 2.15a4.917 4.917 0 0 0-.395 1.933 4.785 4.785 0 1 0 4.785-4.786 4.566 4.566 0 0 0-1.887.395l-2.152-2.15 5.62-5.664 10.536 10.536zm-13.39 1.668a1.273 1.273 0 1 1 2.547 0 1.273 1.273 0 0 1-2.547 0z" fill="#2EB66B"/></svg><svg width="29" height="29" id="L1VzZXJzL2t1a2tvbWFoL3Byb2plY3RzL2NhcmJvZHkucHJvL3NyYy9pbWcvc3ByaXRlLWJ1bGxldHMtMi5zdmc=" x="817" y="238" xmlns="http://www.w3.org/2000/svg"><path d="M24.65 24.65V20.3H29V29H0v-8.7h4.35v4.35h20.3zM4.35 8.08v6.42H0V4.97L14.5.008 29 4.97v9.53h-4.35V8.08L14.5 4.604 4.35 8.079z" fill="#2EB66B"/></svg><svg width="31" height="31" id="L1VzZXJzL2t1a2tvbWFoL3Byb2plY3RzL2NhcmJvZHkucHJvL3NyYy9pbWcvc3ByaXRlLWJ1bGxldHMtMy5zdmc=" x="727" y="238" xmlns="http://www.w3.org/2000/svg"><path d="M23.25 4.65H31v11.703l-17.05 6.2V31H9.3V19.297l17.05-6.2V9.3h-3.1v3.1H0V0h23.25v4.65zm-18.6 0v3.1H18.6v-3.1H4.65z" fill="#2EB66B"/></svg><svg width="26" height="33" id="L1VzZXJzL2t1a2tvbWFoL3Byb2plY3RzL2NhcmJvZHkucHJvL3NyYy9pbWcvc3ByaXRlLWJ1bGxldHMtNC5zdmc=" x="831" y="200" xmlns="http://www.w3.org/2000/svg"><g fill="#2EB66B"><path d="M17.255 3.293L16.077.945A1.627 1.627 0 0 0 14.62.043h-3.25c-.616 0-1.179.347-1.456.902l-1.17 2.348H0v29.25h26V3.293h-8.745zm-4.879 0h1.24l1.629 3.25h-4.49l1.621-3.25zm10.374 26H3.25V6.543h3.874l-.45.902A1.623 1.623 0 0 0 8.12 9.793h9.75a1.622 1.622 0 0 0 1.447-2.348l-.45-.902h3.873v22.75h.009z"/><path d="M6.5 19.543h3.25v3.25H6.5zm6.5 0h6.5v3.25H13zm-6.5-6.5h3.25v3.25H6.5zm6.5 0h6.5v3.25H13z"/></g></svg><svg width="42" height="28" id="L1VzZXJzL2t1a2tvbWFoL3Byb2plY3RzL2NhcmJvZHkucHJvL3NyYy9pbWcvc3ByaXRlLWJ1bGxldHMtNS5zdmc=" x="696" y="172" xmlns="http://www.w3.org/2000/svg"><g fill="#2EB66B"><path d="M33.163 5.25h-6.257V0H.22v23.056h4.637a5.644 5.644 0 0 0 10.85 0h11.025a5.644 5.644 0 0 0 10.85 0h4.2V10.412h-5.556L33.162 5.25zM10.28 23.625a2.144 2.144 0 1 1 .001-4.287 2.144 2.144 0 0 1 0 4.287zm13.125-4.069H15.53a5.6 5.6 0 0 0-10.5 0H3.72V3.5h19.687v16.056zm8.75 4.069a2.144 2.144 0 1 1 .001-4.287 2.144 2.144 0 0 1 0 4.287zm6.125-4.069h-.875a5.6 5.6 0 0 0-10.5-.044V8.75h4.244l3.063 5.162h4.068v5.644z"/><path d="M12.294 5.381h9.8v2.625h-9.8zm-6.169 4.638h15.969v2.625H6.125zm9.319 4.681h6.65v2.625h-6.65z"/></g></svg><svg width="27" height="27" id="L1VzZXJzL2t1a2tvbWFoL3Byb2plY3RzL2NhcmJvZHkucHJvL3NyYy9pbWcvc3ByaXRlLWJ1bGxldHMtNi5zdmc=" x="696" y="269" xmlns="http://www.w3.org/2000/svg"><path d="M23.45 27H0V8.1h7.712L13.304 0h7.621v8.1H27v12.688L23.45 27zm-16.7-4.05v-10.8h-2.7v10.8h2.7zm16.2-3.238V12.15h-6.075v-8.1h-1.446L10.8 10.756V22.95h10.3l1.85-3.238z" fill="#2EB66B" fill-rule="evenodd"/></svg><svg width="177" height="394" id="L1VzZXJzL2t1a2tvbWFoL3Byb2plY3RzL2NhcmJvZHkucHJvL3NyYy9pbWcvc3ByaXRlLWJhY2tncm91bmQtMi5zdmc=" y="243" xmlns="http://www.w3.org/2000/svg"><g fill="none" fill-rule="evenodd"><circle fill="#F1F1F1" cx="149" cy="283" r="111"/><path d="M197.006 147.448l33.478-19.33-9.645-16.704-33.478 19.329 9.645 16.705zM96.57 205.433l33.478-19.328-9.644-16.705-33.478 19.329 9.644 16.704zm142.145-101.712c-4.504-7.801-12.687-12.33-21.604-12.428L102.39 157.528l-9.645-16.705L200.27 78.744 175.34 47.01c-2.97-3.757-8.25-4.772-12.415-2.387L58.04 105.18c-4.134 2.387-5.92 7.527-4.14 11.945l21.04 52.466-2.792 4.23a25.1 25.1 0 0 0-.822 26.544l32.618 56.496 16.74-9.665-14.468-25.057 133.913-77.314 14.467 25.057 16.739-9.665-32.618-56.495zm16.74-9.664l32.617 56.495c5.319 9.213 2.137 21.04-7.095 26.369l-16.739 9.664c-9.231 5.33-21.064 2.173-26.383-7.04l-4.822-8.352-100.435 57.985 4.822 8.353c5.32 9.212 2.137 21.039-7.094 26.369l-16.74 9.664c-9.231 5.33-21.064 2.172-26.383-7.04l-32.618-56.495a44.245 44.245 0 0 1-1.203-42.27l-17.42-43.431c-5.293-13.362-.01-28.6 12.432-35.854l104.887-60.557c12.502-7.147 28.34-4.104 37.266 7.161l28.903 36.801a44.245 44.245 0 0 1 36.004 22.178z" fill="#1CAF5E"/></g></svg><svg width="166" height="172" id="L1VzZXJzL2t1a2tvbWFoL3Byb2plY3RzL2NhcmJvZHkucHJvL3NyYy9pbWcvc3ByaXRlLWJhY2tncm91bmQtMy5zdmc=" x="696" xmlns="http://www.w3.org/2000/svg"><g fill="none" fill-rule="evenodd"><circle fill="#F1F1F1" cx="110.5" cy="66.5" r="55.5"/><path d="M31.048 89.483l20.23-11.68L45.45 67.71 25.22 79.39l5.828 10.094zm-60.691 35.04l20.23-11.68-5.828-10.094-20.23 11.68 5.828 10.094zM56.253 63.06c-2.722-4.714-7.667-7.451-13.055-7.51l-69.325 40.024-5.828-10.094L33.02 47.967 17.956 28.79a5.854 5.854 0 0 0-7.502-1.443l-63.382 36.594c-2.498 1.442-3.577 4.549-2.501 7.218l12.714 31.705-1.687 2.555a15.167 15.167 0 0 0-.497 16.041l19.71 34.14 10.116-5.84-8.742-15.142 80.921-46.72 8.742 15.141 10.115-5.84-19.71-34.14zm10.115-5.84l19.71 34.14c3.215 5.566 1.292 12.713-4.287 15.934l-10.115 5.84c-5.578 3.22-12.729 1.312-15.943-4.255l-2.914-5.047-60.691 35.04 2.914 5.047c3.214 5.567 1.291 12.714-4.287 15.935l-10.116 5.84c-5.578 3.22-12.729 1.312-15.943-4.255l-19.71-34.139a26.736 26.736 0 0 1-.728-25.543l-10.526-26.245c-3.198-8.074-.006-17.282 7.512-21.666L4.626 17.253c7.555-4.32 17.126-2.48 22.52 4.327L44.61 43.818A26.736 26.736 0 0 1 66.368 57.22z" fill="#1CAF5E"/></g></svg><svg width="147" height="205" id="L1VzZXJzL2t1a2tvbWFoL3Byb2plY3RzL2NhcmJvZHkucHJvL3NyYy9pbWcvc3ByaXRlLWJhY2tncm91bmQtNC5zdmc=" x="549" xmlns="http://www.w3.org/2000/svg"><g fill="none" fill-rule="evenodd"><circle fill="#F1F1F1" cx="70" cy="94" r="70"/><path d="M165.585 109.921l22.73-9.649-4.81-11.333-22.73 9.648 4.81 11.334zm-68.192 28.946l22.73-9.649-4.81-11.333-22.731 9.648 4.81 11.334zm98.045-53.415c-2.247-5.293-7.081-8.799-12.726-9.553l-77.893 33.064-4.81-11.334 73.005-30.989-13.328-22.044a6.186 6.186 0 0 0-7.684-2.477L80.787 72.35c-2.808 1.191-4.34 4.31-3.557 7.247l9.246 34.88-2.1 2.462a16.02 16.02 0 0 0-2.592 16.757l16.27 38.33 11.366-4.824-7.216-17 90.923-38.595 7.216 17 11.366-4.823-16.27-38.331zm11.365-4.825l16.27 38.331c2.654 6.25-.286 13.498-6.554 16.158l-11.365 4.825c-6.268 2.66-13.523-.26-16.176-6.51l-2.406-5.667-68.192 28.946 2.405 5.667c2.654 6.25-.286 13.498-6.554 16.158l-11.365 4.825c-6.268 2.66-13.524-.26-16.177-6.51l-16.27-38.33a28.237 28.237 0 0 1 2.534-26.879L65.298 82.77c-2.313-8.878 2.225-18.124 10.678-21.754l71.215-30.23c8.484-3.558 18.287-.4 23.066 7.431l15.452 25.563a28.237 28.237 0 0 1 21.094 16.848z" fill="#1CAF5E"/></g></svg><svg width="166" height="277" id="L1VzZXJzL2t1a2tvbWFoL3Byb2plY3RzL2NhcmJvZHkucHJvL3NyYy9pbWcvc3ByaXRlLWJhY2tncm91bmQtNS5zdmc=" x="177" y="243" xmlns="http://www.w3.org/2000/svg"><path d="M179.484 177.833l35.99 20.78 10.362-17.946-35.992-20.78-10.36 17.946zM71.51 115.494l35.99 20.78 10.362-17.946-35.991-20.78-10.361 17.946zm171.099 77.68c4.838-8.38 4.653-18.429-.05-26.78L119.224 95.188l10.36-17.946 115.596 66.74 16.13-40.242c1.9-4.782.006-10.24-4.453-12.836l-112.76-65.102c-4.445-2.567-10.19-1.469-13.344 2.56L93.237 76.116l-5.437-.328c-10.284-.664-20.037 4.567-25.148 13.489l-35.04 60.692 17.995 10.39L61.15 133.44l143.965 83.118-15.541 26.919 17.995 10.39 35.04-60.692zm17.995 10.39l-35.04 60.692c-5.714 9.897-18.432 13.286-28.357 7.556l-17.995-10.39c-9.925-5.73-13.35-18.438-7.635-28.335l5.18-8.973-107.974-62.339-5.18 8.973c-5.714 9.897-18.432 13.286-28.357 7.556l-17.995-10.39c-9.925-5.73-13.349-18.438-7.635-28.335l35.04-60.692C52.667 64.905 67.229 55.94 83.35 55.07l31.055-39.533c9.59-12.1 26.613-15.365 40.054-7.681l112.76 65.102c13.376 7.799 19.06 24.173 13.375 38.529l-18.709 46.66c7.306 14.397 6.825 31.49-1.28 45.417z" fill="#1CAF5E" fill-rule="evenodd"/></svg><svg width="115" height="243" id="L1VzZXJzL2t1a2tvbWFoL3Byb2plY3RzL2NhcmJvZHkucHJvL3NyYy9pbWcvc3ByaXRlLWJnMS5zdmc=" x="343" y="243" xmlns="http://www.w3.org/2000/svg"><g fill="none" fill-rule="evenodd"><circle fill="#F1F1F1" cx="30" cy="159" r="84"/><path d="M34.356 104.58l16.94 16.94 8.421-8.421-16.94-16.94-8.421 8.421zm-50.82-50.82L.476 70.7l8.422-8.42-16.94-16.94-8.422 8.42zm83.658 68.802c3.932-3.932 5.318-9.545 3.94-14.89l-58.05-58.05 8.422-8.421 54.407 54.407 14.934-19.949c1.765-2.373 1.52-5.69-.576-7.8L37.198 14.784c-2.092-2.092-5.45-2.342-7.8-.575L1.454 35.13l-2.975-.996c-5.622-1.91-11.821-.464-15.986 3.729l-28.482 28.482 8.47 8.47 12.633-12.633 67.76 67.76-12.633 12.632 8.47 8.47 28.482-28.482zm8.47 8.47l-28.482 28.482c-4.645 4.645-12.22 4.623-16.892-.048l-8.47-8.47c-4.67-4.671-4.693-12.247-.048-16.892l4.21-4.21-50.819-50.82-4.21 4.21c-4.645 4.645-12.221 4.624-16.892-.048l-8.47-8.47c-4.671-4.67-4.693-12.247-.049-16.891l28.482-28.482c6.526-6.571 15.954-9.372 25.05-7.44l23.13-17.32C29.33-.656 39.283.08 45.62 6.363l53.073 53.074c6.284 6.337 7.02 16.289 1.73 23.416l-17.319 23.13c1.931 9.095-.87 18.523-7.44 25.05z" fill="#1CAF5E"/></g></svg><svg width="29" height="29" id="L1VzZXJzL2t1a2tvbWFoL3Byb2plY3RzL2NhcmJvZHkucHJvL3NyYy9pbWcvc3ByaXRlLWNsb2NrLnN2Zw==" x="788" y="238" xmlns="http://www.w3.org/2000/svg"><path d="M18.656 21.22l-5.968-5.969v-8h3.624v6.5l4.907 4.906-2.563 2.562zM14.5 0C6.492 0 0 6.492 0 14.5S6.492 29 14.5 29 29 22.508 29 14.5 22.508 0 14.5 0zm0 25.375c-6.006 0-10.875-4.87-10.875-10.875 0-6.006 4.87-10.875 10.875-10.875 6.006 0 10.875 4.87 10.875 10.875 0 6.006-4.87 10.875-10.875 10.875z" fill="#1CAF5E"/></svg><svg width="27" height="27" id="L1VzZXJzL2t1a2tvbWFoL3Byb2plY3RzL2NhcmJvZHkucHJvL3NyYy9pbWcvc3ByaXRlLWNsb3NlLnN2Zw==" x="723" y="269" xmlns="http://www.w3.org/2000/svg"><path d="M14.985 13.435l5.943 5.942-1.55 1.55-5.943-5.942-5.942 5.943-1.55-1.55 5.942-5.943-5.943-5.942 1.55-1.55 5.943 5.942 5.942-5.943 1.55 1.55-5.942 5.943z" fill-rule="evenodd" opacity=".2"/></svg><svg width="20" height="17" id="L1VzZXJzL2t1a2tvbWFoL3Byb2plY3RzL2NhcmJvZHkucHJvL3NyYy9pbWcvc3ByaXRlLWVtYWlsLnN2Zw==" x="793" y="172" xmlns="http://www.w3.org/2000/svg"><path d="M19.87.237H.13v16.526h19.74V.237zm-4.637 2.621L10 7.528l-5.233-4.67h10.466zm2.006 11.284H2.761V4.586L10 11.046l7.24-6.46v9.556z" fill="#1CAF5E"/></svg><svg width="549" height="243" id="L1VzZXJzL2t1a2tvbWFoL3Byb2plY3RzL2NhcmJvZHkucHJvL3NyYy9pbWcvc3ByaXRlLWxpbmVzLnN2Zw==" xmlns="http://www.w3.org/2000/svg"><g fill="none" fill-rule="evenodd"><circle fill="#1CAF5E" cx="405.5" cy="234.5" r="2.5"/><circle fill="#1CAF5E" cx="2.5" cy="240.5" r="2.5"/><circle fill="#1CAF5E" cx="272.5" cy="238.5" r="2.5"/><circle fill="#1CAF5E" cx="539.5" cy="232.5" r="2.5"/><path d="M243 53v177.186c0 5.21 2.036 7.814 6.108 7.814H274" stroke="#1CAF5E" stroke-linecap="square"/><circle fill="#1CAF5E" cx="93.5" cy="238.5" r="2.5"/><path d="M62 106v125.157c0 5.228 2.036 7.843 6.108 7.843H93m310.946-3L404 11M59 11H27c-7.333 0-10 9.855-8 29.564v192.583c0 5.235-2.076 7.853-6.227 7.853H4" stroke="#1CAF5E" stroke-linecap="square"/><circle stroke="#1CAF5E" stroke-width="6" fill="#FFF" cx="243.5" cy="47.5" r="6.5"/><circle stroke="#1CAF5E" stroke-width="6" fill="#FFF" cx="63.5" cy="107.5" r="6.5"/><circle stroke="#1CAF5E" stroke-width="6" fill="#FFF" cx="402.5" cy="10.5" r="6.5"/><path d="M540 44v188" stroke="#1CAF5E" stroke-linecap="square"/><circle stroke="#1CAF5E" stroke-width="6" fill="#FFF" cx="539.5" cy="43.5" r="6.5"/><circle stroke="#1CAF5E" stroke-width="6" fill="#FFF" cx="59.5" cy="9.5" r="6.5"/></g></svg><svg width="25" height="25" id="L1VzZXJzL2t1a2tvbWFoL3Byb2plY3RzL2NhcmJvZHkucHJvL3NyYy9pbWcvc3ByaXRlLXBob25lLXNtLnN2Zw==" x="768" y="172" xmlns="http://www.w3.org/2000/svg"><path d="M15.766 5.575V6.62a2.617 2.617 0 0 1 2.614 2.614h1.045a3.663 3.663 0 0 0-3.659-3.66zm0-4.182V2.44a6.803 6.803 0 0 1 6.795 6.795h1.046c0-4.324-3.517-7.84-7.841-7.84zM12.544 17.63c-.609-.229-2.059-.854-3.189-1.985-1.13-1.131-1.757-2.582-1.985-3.189l.81-.811-3.548-5.323-2.299 2.3c-2.072 2.07-.612 6.779 3.327 10.718 2.632 2.633 5.761 4.267 8.166 4.267 1.056 0 1.938-.325 2.555-.94l2.298-2.299-5.323-3.548-.812.81zm4.492 2.901L15.64 21.93c-.42.42-1.03.632-1.814.632-2.105 0-5.02-1.553-7.427-3.96-3.406-3.406-4.93-7.638-3.327-9.24L4.47 7.965l2.366 3.548-.658.659.09.299c.027.09.695 2.261 2.348 3.914s3.823 2.32 3.915 2.348l.3.09.657-.657 3.55 2.366z" fill="#1CAF5E" stroke="#1CAF5E"/></svg><svg width="34" height="34" id="L1VzZXJzL2t1a2tvbWFoL3Byb2plY3RzL2NhcmJvZHkucHJvL3NyYy9pbWcvc3ByaXRlLXBob25lLnN2Zw==" x="797" y="200" xmlns="http://www.w3.org/2000/svg"><path d="M21.828 6.763v1.545a3.868 3.868 0 0 1 3.864 3.864h1.545a5.415 5.415 0 0 0-5.409-5.41zm0-6.182v1.546c5.539 0 10.045 4.506 10.045 10.045h1.546c0-6.392-5.199-11.59-11.591-11.59zm-4.763 24.003c-.9-.339-3.043-1.263-4.714-2.935-1.67-1.672-2.598-3.816-2.935-4.714l1.198-1.2L5.37 7.869l-3.4 3.397c-3.063 3.063-.904 10.024 4.918 15.846 3.892 3.891 8.517 6.307 12.072 6.307 1.56 0 2.865-.48 3.777-1.39l3.397-3.398-7.868-5.245-1.201 1.198zm6.64 4.288l-2.064 2.066c-.621.622-1.524.935-2.683.935-3.11 0-7.421-2.296-10.979-5.854C2.944 20.984.692 14.73 3.062 12.361l2.066-2.067 3.497 5.246-.972.973.133.442c.04.135 1.028 3.343 3.471 5.786 2.443 2.444 5.652 3.431 5.788 3.471l.443.135.97-.972 5.248 3.497z" fill="#1CAF5E" stroke="#1CAF5E" stroke-width="2"/></svg><svg height="16" width="16" id="L1VzZXJzL2t1a2tvbWFoL3Byb2plY3RzL2NhcmJvZHkucHJvL3NyYy9pbWcvc3ByaXRlLXBsdXMuc3Zn" x="813" y="172" xmlns="http://www.w3.org/2000/svg"><text fill="#2eb66b" fill-rule="evenodd" font-family="GothamPro, Gotham Pro" font-size="31" transform="translate(-742 -4600)"><tspan x="740" y="4619">+</tspan></text></svg><svg height="8" width="11" id="L1VzZXJzL2t1a2tvbWFoL3Byb2plY3RzL2NhcmJvZHkucHJvL3NyYy9pbWcvc3ByaXRlLXNlbGVjdC1hcnJvdy5zdmc=" x="829" y="175" xmlns="http://www.w3.org/2000/svg"><path d="M10.5 2.113L8.997.5l-3.5 3.768L2.004.5.5 2.113l4.248 4.575.75.812.754-.812z"/></svg></svg>