<svg width="42" height="28" viewBox="0 0 42 28" xmlns="http://www.w3.org/2000/svg"><title>noun_delivery_1534301 (1)</title><g fill="#2EB66B"><path d="M33.163 5.25h-6.257V0H.22v23.056h4.637a5.644 5.644 0 0 0 10.85 0h11.025a5.644 5.644 0 0 0 10.85 0h4.2V10.412h-5.556L33.162 5.25zM10.28 23.625a2.144 2.144 0 1 1 .001-4.287 2.144 2.144 0 0 1 0 4.287zm13.125-4.069h-7.875a5.6 5.6 0 0 0-10.5 0H3.72V3.5h19.687v16.056zm8.75 4.069a2.144 2.144 0 1 1 .001-4.287 2.144 2.144 0 0 1 0 4.287zm6.125-4.069h-.875a5.6 5.6 0 0 0-10.5-.044V8.75h4.244l3.063 5.162h4.068v5.644z"/><path d="M12.294 5.381H22.094V8.006H12.294z"/><path d="M6.125 10.019H22.094V12.644H6.125z"/><path d="M15.444 14.7H22.094V17.325H15.444z"/></g></svg>