<svg width="115" height="243" viewBox="0 0 115 243" xmlns="http://www.w3.org/2000/svg"><title>sprite-bg1</title><g fill="none" fill-rule="evenodd"><circle fill="#F1F1F1" cx="30" cy="159" r="84"/><path d="M34.356 104.58l16.94 16.94 8.421-8.421-16.94-16.94-8.421 8.421zm-50.82-50.82L.476 70.7l8.422-8.42-16.94-16.94-8.422 8.42zm83.658 68.802c3.932-3.932 5.318-9.545 3.94-14.89l-58.05-58.05 8.422-8.421 54.407 54.407 14.934-19.949c1.765-2.373 1.52-5.69-.576-7.8L37.198 14.784c-2.092-2.092-5.45-2.342-7.8-.575L1.454 35.13l-2.975-.996c-5.622-1.91-11.821-.464-15.986 3.729l-28.482 28.482 8.47 8.47 12.633-12.633 67.76 67.76-12.633 12.632 8.47 8.47 28.482-28.482zm8.47 8.47l-28.482 28.482c-4.645 4.645-12.22 4.623-16.892-.048l-8.47-8.47c-4.67-4.671-4.693-12.247-.048-16.892l4.21-4.21-50.819-50.82-4.21 4.21c-4.645 4.645-12.221 4.624-16.892-.048l-8.47-8.47c-4.671-4.67-4.693-12.247-.049-16.891l28.482-28.482c6.526-6.571 15.954-9.372 25.05-7.44l23.13-17.32C29.33-.656 39.283.08 45.62 6.363l53.073 53.074c6.284 6.337 7.02 16.289 1.73 23.416l-17.319 23.13c1.931 9.095-.87 18.523-7.44 25.05z" fill="#1CAF5E"/></g></svg>