<svg width="38" height="38" viewBox="0 0 38 38" xmlns="http://www.w3.org/2000/svg"><title>order-call</title><g fill="#1CAF5E"><path d="M19.298 0C9.016 0 .671 8.345.671 18.627c0 10.283 8.345 18.628 18.627 18.628 4.173 0 8.196-1.416 11.475-3.95v1.864h1.639V30.25h-4.918v1.64h2.533c-3.054 2.458-6.78 3.8-10.654 3.8-9.463 0-17.138-7.675-17.138-17.064C2.235 9.24 9.91 1.64 19.298 1.64c9.388 0 17.063 7.6 17.063 16.988 0 3.726-1.192 7.228-3.428 10.208l1.267.969a18.495 18.495 0 0 0 3.725-11.177C38 8.345 29.58 0 19.298 0z"/><path d="M16.84 9.835a2.83 2.83 0 0 0-2.832 2.832v11.996a2.83 2.83 0 0 0 2.831 2.831h4.992a2.83 2.83 0 0 0 2.832-2.831V12.667a2.83 2.83 0 0 0-2.832-2.832H16.84zm6.184 2.832v11.996c0 .67-.522 1.192-1.193 1.192H16.84c-.67 0-1.192-.522-1.192-1.192V12.667c0-.67.522-1.192 1.192-1.192h4.992c.596 0 1.193.521 1.193 1.192z"/><circle cx="19.298" cy="23.769" r="1.043"/></g></svg>