<svg width="25" height="25" viewBox="0 0 25 25" xmlns="http://www.w3.org/2000/svg"><title>Group</title><g transform="translate(1 1)" fill="#1CAF5E" stroke="#1CAF5E"><path d="M14.766 4.575V5.62a2.617 2.617 0 0 1 2.614 2.614h1.045a3.663 3.663 0 0 0-3.659-3.66zm0-4.182V1.44a6.803 6.803 0 0 1 6.795 6.795h1.046c0-4.324-3.517-7.84-7.841-7.84zM11.544 16.63c-.609-.229-2.059-.854-3.189-1.985-1.13-1.131-1.757-2.582-1.985-3.189l.81-.811-3.548-5.323-2.299 2.3C-.739 9.692.721 14.401 4.66 18.34c2.632 2.633 5.761 4.267 8.166 4.267 1.056 0 1.938-.325 2.555-.94l2.298-2.299-5.323-3.548-.812.81zm4.492 2.901L14.64 20.93c-.42.42-1.03.632-1.814.632-2.105 0-5.02-1.553-7.427-3.96-3.406-3.406-4.93-7.638-3.327-9.24l1.398-1.397 2.366 3.548-.658.659.09.299c.027.09.695 2.261 2.348 3.914s3.823 2.32 3.915 2.348l.3.09.657-.657 3.55 2.366z"/></g></svg>