<svg width="549" height="243" viewBox="0 0 549 243" xmlns="http://www.w3.org/2000/svg"><title>sprite-lines</title><g fill="none" fill-rule="evenodd"><circle fill="#1CAF5E" cx="405.5" cy="234.5" r="2.5"/><circle fill="#1CAF5E" cx="2.5" cy="240.5" r="2.5"/><circle fill="#1CAF5E" cx="272.5" cy="238.5" r="2.5"/><circle fill="#1CAF5E" cx="539.5" cy="232.5" r="2.5"/><path d="M243 53v177.186c0 5.21 2.036 7.814 6.108 7.814H274" stroke="#1CAF5E" stroke-linecap="square"/><circle fill="#1CAF5E" cx="93.5" cy="238.5" r="2.5"/><path d="M62 106v125.157c0 5.228 2.036 7.843 6.108 7.843H93" stroke="#1CAF5E" stroke-linecap="square"/><path d="M403.946 236L404 11" stroke="#1CAF5E" stroke-linecap="square"/><path d="M59 11H27c-7.333 0-10 9.855-8 29.564v192.583c0 5.235-2.076 7.853-6.227 7.853H4" stroke="#1CAF5E" stroke-linecap="square"/><circle stroke="#1CAF5E" stroke-width="6" fill="#FFF" cx="243.5" cy="47.5" r="6.5"/><circle stroke="#1CAF5E" stroke-width="6" fill="#FFF" cx="63.5" cy="107.5" r="6.5"/><circle stroke="#1CAF5E" stroke-width="6" fill="#FFF" cx="402.5" cy="10.5" r="6.5"/><path d="M540 44v188" stroke="#1CAF5E" stroke-linecap="square"/><circle stroke="#1CAF5E" stroke-width="6" fill="#FFF" cx="539.5" cy="43.5" r="6.5"/><circle stroke="#1CAF5E" stroke-width="6" fill="#FFF" cx="59.5" cy="9.5" r="6.5"/></g></svg>