<?xml version="1.0" encoding="UTF-8"?>
<svg width="166px" height="172px" viewBox="0 0 166 172" version="1.1" xmlns="http://www.w3.org/2000/svg" xmlns:xlink="http://www.w3.org/1999/xlink">
    <!-- Generator: Sketch 50 (54983) - http://www.bohemiancoding.com/sketch -->
    <title>sprite-background-3</title>
    <desc>Created with Sketch.</desc>
    <defs></defs>
    <g id="sprite-background-3" stroke="none" stroke-width="1" fill="none" fill-rule="evenodd">
        <circle id="Oval-7-Copy-2" fill="#F1F1F1" cx="110.5" cy="66.5" r="55.5"></circle>
        <g id="Group-10-Copy-2" transform="translate(2.000000, 86.000000) rotate(-90.000000) translate(-2.000000, -86.000000) translate(-84.000000, -4.000000)" fill="#1CAF5E">
            <g id="noun_Car-Wash_1744819" transform="translate(0.000000, 0.000000)">
                <path d="M109.33841,107.559326 L132.698463,107.559326 L132.698463,95.9033078 L109.33841,95.9033078 L109.33841,107.559326 Z M39.2582497,107.559326 L62.618303,107.559326 L62.618303,95.9033078 L39.2582497,95.9033078 L39.2582497,107.559326 Z M144.378489,97.278718 C144.378489,91.8353574 141.464323,86.9922817 136.827352,84.2472894 L56.7782897,84.2472894 L56.7782897,72.5912711 L131.804941,72.5912711 L128.347653,48.451657 C127.928388,45.5877466 125.472136,43.4612224 122.57188,43.4512252 L49.3848328,43.4512252 C46.4998663,43.4512252 44.0120206,45.6017606 43.6090597,48.451657 L38.7676886,82.2657663 L36.0287224,83.6353485 C30.8361226,86.2038021 27.5587021,91.4952125 27.5782231,97.278718 L27.5781364,136.699372 L39.2582497,136.699372 L39.2582497,119.215345 L132.698463,119.215345 L132.698463,136.699372 L144.378489,136.699372 L144.378489,97.278718 Z M156.058516,97.278718 L156.058516,136.699372 C156.058516,143.127666 150.820024,148.35539 144.378489,148.35539 L132.698463,148.35539 C126.256928,148.35539 121.018436,143.127666 121.018436,136.699372 L121.018436,130.871363 L50.9382764,130.871363 L50.9382764,136.699372 C50.9382764,143.127666 45.6997844,148.35539 39.2582497,148.35539 L27.5782231,148.35539 C21.1366884,148.35539 15.8981965,143.127666 15.8981965,136.699372 L15.8981965,97.278718 C15.8670911,88.2152384 20.4368918,79.7524909 28.0395842,74.7942585 L32.0458333,46.8023304 C33.31331,38.2102862 40.6823753,31.8322669 49.3848328,31.7952068 L122.57188,31.7952068 C131.274337,31.8322669 138.643402,38.2102862 139.910879,46.8023304 L143.917128,74.7942585 C151.519821,79.7524909 156.089621,88.2152384 156.058516,97.278718 Z" id="Shape" transform="translate(85.978356, 90.075299) rotate(-300.000000) translate(-85.978356, -90.075299) "></path>
            </g>
        </g>
    </g>
</svg>