<?xml version="1.0" encoding="UTF-8"?>
<svg width="166px" height="277px" viewBox="0 0 166 277" version="1.1" xmlns="http://www.w3.org/2000/svg" xmlns:xlink="http://www.w3.org/1999/xlink">
    <!-- Generator: Sketch 50 (54983) - http://www.bohemiancoding.com/sketch -->
    <title>sprite-background-5</title>
    <desc>Created with Sketch.</desc>
    <defs></defs>
    <g id="sprite-background-5" stroke="none" stroke-width="1" fill="none" fill-rule="evenodd">
        <g id="Group-10-Copy-3" transform="translate(159.000000, 130.000000) rotate(-30.000000) translate(-159.000000, -130.000000) translate(6.000000, -30.000000)" fill="#1CAF5E">
            <g id="noun_Car-Wash_1744819">
                <path d="M194.520659,191.21658 L236.079823,191.21658 L236.079823,170.494769 L194.520659,170.494769 L194.520659,191.21658 Z M69.8431652,191.21658 L111.40233,191.21658 L111.40233,170.494769 L69.8431652,170.494769 L69.8431652,191.21658 Z M256.859406,172.939943 C256.859406,163.262858 251.6749,154.652945 243.425406,149.772959 L101.012539,149.772959 L101.012539,129.051149 L234.490185,129.051149 L228.339429,86.1362792 C227.593528,81.0448828 223.223684,77.2643955 218.063925,77.2466225 L87.8590631,77.2466225 C82.7265062,77.2466225 78.3004552,81.0697965 77.5835596,86.1362792 L68.9704228,146.250251 L64.0976107,148.685064 C54.8596135,153.251204 49.0288537,162.658155 49.063583,172.939943 L49.0634287,243.021106 L69.8431652,243.021106 L69.8431652,211.93839 L236.079823,211.93839 L236.079823,243.021106 L256.859406,243.021106 L256.859406,172.939943 Z M277.638988,172.939943 L277.638988,243.021106 C277.638988,254.449184 268.319345,263.742916 256.859406,263.742916 L236.079823,263.742916 C224.619884,263.742916 215.300241,254.449184 215.300241,243.021106 L215.300241,232.660201 L90.6227475,232.660201 L90.6227475,243.021106 C90.6227475,254.449184 81.3031049,263.742916 69.8431652,263.742916 L49.063583,263.742916 C37.6036434,263.742916 28.2840007,254.449184 28.2840007,243.021106 L28.2840007,172.939943 C28.228662,156.82709 36.3586563,141.782206 49.8843765,132.967571 L57.0117732,83.204143 C59.2667027,67.9293977 72.3767839,56.5906968 87.8590631,56.5248121 L218.063925,56.5248121 C233.546205,56.5906968 246.656286,67.9293977 248.911215,83.204143 L256.038612,132.967571 C269.564332,141.782206 277.694326,156.82709 277.638988,172.939943 Z" id="Shape" transform="translate(152.961494, 160.133864) rotate(-300.000000) translate(-152.961494, -160.133864) "></path>
            </g>
        </g>
    </g>
</svg>