<svg width="34" height="34" viewBox="0 0 34 34" xmlns="http://www.w3.org/2000/svg"><title>sprite-phone</title><g fill="#1CAF5E" stroke="#1CAF5E" stroke-width="2"><path d="M21.828 6.763v1.545a3.868 3.868 0 0 1 3.864 3.864h1.545a5.415 5.415 0 0 0-5.409-5.41zm0-6.182v1.546c5.539 0 10.045 4.506 10.045 10.045h1.546c0-6.392-5.199-11.59-11.591-11.59zm-4.763 24.003c-.9-.339-3.043-1.263-4.714-2.935-1.67-1.672-2.598-3.816-2.935-4.714l1.198-1.2L5.37 7.869 1.97 11.266c-3.063 3.063-.904 10.024 4.918 15.846 3.892 3.891 8.517 6.307 12.072 6.307 1.56 0 2.865-.48 3.777-1.39l3.397-3.398-7.868-5.245-1.201 1.198zm6.64 4.288l-2.064 2.066c-.621.622-1.524.935-2.683.935-3.11 0-7.421-2.296-10.979-5.854C2.944 20.984.692 14.73 3.062 12.361l2.066-2.067 3.497 5.246-.972.973.133.442c.04.135 1.028 3.343 3.471 5.786 2.443 2.444 5.652 3.431 5.788 3.471l.443.135.97-.972 5.248 3.497z"/></g></svg>