<svg width="26" height="33" viewBox="0 0 26 33" xmlns="http://www.w3.org/2000/svg"><title>noun_Checklist_491461</title><g fill="#2EB66B"><path d="M17.255 3.293L16.077.945A1.627 1.627 0 0 0 14.62.043h-3.25c-.616 0-1.179.347-1.456.902l-1.17 2.348H0v29.25h26V3.293h-8.745zm-4.879 0h1.24l1.629 3.25h-4.49l1.621-3.25zm10.374 26H3.25V6.543h3.874l-.45.902A1.623 1.623 0 0 0 8.12 9.793h9.75a1.622 1.622 0 0 0 1.447-2.348l-.45-.902h3.873v22.75h.009z"/><path d="M6.5 19.543H9.75V22.793H6.5z"/><path d="M13 19.543H19.5V22.793H13z"/><path d="M6.5 13.043H9.75V16.293H6.5z"/><path d="M13 13.043H19.5V16.293H13z"/></g></svg>