<svg width="36" height="36" viewBox="0 0 36 36" xmlns="http://www.w3.org/2000/svg"><title>noun_color_1534342</title><path d="M14.224 2.59l1.844 1.8-1.36 1.361-3.645-3.644a4.785 4.785 0 0 0-6.804 0 4.741 4.741 0 0 0 0 6.761l3.687 3.688-7.902 7.859L15.54 35.912l16.025-16.024 1.888 1.932 2.502-2.503L16.726.087 14.225 2.59zM6.761 6.41a1.273 1.273 0 0 1 0-1.844 1.317 1.317 0 0 1 1.8 0l3.688 3.688-1.844 1.8L6.76 6.41zm22.302 11.02L15.541 30.95 5.005 20.415l5.4-5.4 2.151 2.15a4.917 4.917 0 0 0-.395 1.933 4.785 4.785 0 1 0 4.785-4.786 4.566 4.566 0 0 0-1.887.395l-2.152-2.15 5.62-5.664 10.536 10.536zm-13.39 1.668a1.273 1.273 0 1 1 2.547 0 1.273 1.273 0 0 1-2.547 0z" fill="#2EB66B"/></svg>