<svg width="177" height="394" viewBox="0 0 177 394" xmlns="http://www.w3.org/2000/svg"><title>sprite-background-2</title><g fill="none" fill-rule="evenodd"><circle fill="#F1F1F1" cx="149" cy="283" r="111"/><path d="M197.006 147.448l33.478-19.33-9.645-16.704-33.478 19.329 9.645 16.705zM96.57 205.433l33.478-19.328-9.644-16.705-33.478 19.329 9.644 16.704zm142.145-101.712c-4.504-7.801-12.687-12.33-21.604-12.428l-114.721 66.235-9.645-16.705L200.27 78.744 175.34 47.01c-2.97-3.757-8.25-4.772-12.415-2.387L58.04 105.18c-4.134 2.387-5.92 7.527-4.14 11.945l21.04 52.466-2.792 4.23a25.1 25.1 0 0 0-.822 26.544l32.618 56.496 16.74-9.665-14.468-25.057 133.913-77.314 14.467 25.057 16.739-9.665-32.618-56.495zm16.74-9.664l32.617 56.495c5.319 9.213 2.137 21.04-7.095 26.369l-16.739 9.664c-9.231 5.33-21.064 2.173-26.383-7.04l-4.822-8.352-100.435 57.985 4.822 8.353c5.32 9.212 2.137 21.039-7.094 26.369l-16.74 9.664c-9.231 5.33-21.064 2.172-26.383-7.04l-32.618-56.495a44.245 44.245 0 0 1-1.203-42.27l-17.42-43.431c-5.293-13.362-.01-28.6 12.432-35.854l104.887-60.557c12.502-7.147 28.34-4.104 37.266 7.161l28.903 36.801a44.245 44.245 0 0 1 36.004 22.178z" fill="#1CAF5E"/></g></svg>