<svg width="147" height="205" viewBox="0 0 147 205" xmlns="http://www.w3.org/2000/svg"><title>sprite-background-4</title><g fill="none" fill-rule="evenodd"><circle fill="#F1F1F1" cx="70" cy="94" r="70"/><path d="M165.585 109.921l22.73-9.649-4.81-11.333-22.73 9.648 4.81 11.334zm-68.192 28.946l22.73-9.649-4.81-11.333-22.731 9.648 4.81 11.334zm98.045-53.415c-2.247-5.293-7.081-8.799-12.726-9.553l-77.893 33.064-4.81-11.334 73.005-30.989-13.328-22.044a6.186 6.186 0 0 0-7.684-2.477L80.787 72.35c-2.808 1.191-4.34 4.31-3.557 7.247l9.246 34.88-2.1 2.462a16.02 16.02 0 0 0-2.592 16.757l16.27 38.33 11.366-4.824-7.216-17 90.923-38.595 7.216 17 11.366-4.823-16.27-38.331zm11.365-4.825l16.27 38.331c2.654 6.25-.286 13.498-6.554 16.158l-11.365 4.825c-6.268 2.66-13.523-.26-16.176-6.51l-2.406-5.667-68.192 28.946 2.405 5.667c2.654 6.25-.286 13.498-6.554 16.158l-11.365 4.825c-6.268 2.66-13.524-.26-16.177-6.51l-16.27-38.33a28.237 28.237 0 0 1 2.534-26.879L65.298 82.77c-2.313-8.878 2.225-18.124 10.678-21.754l71.215-30.23c8.484-3.558 18.287-.4 23.066 7.431l15.452 25.563a28.237 28.237 0 0 1 21.094 16.848z" fill="#1CAF5E"/></g></svg>